<?xml version="1.0" encoding="UTF-8" standalone="no"?>
<svg
   xmlns:dc="http://purl.org/dc/elements/1.1/"
   xmlns:cc="http://creativecommons.org/ns#"
   xmlns:rdf="http://www.w3.org/1999/02/22-rdf-syntax-ns#"
   xmlns:svg="http://www.w3.org/2000/svg"
   xmlns="http://www.w3.org/2000/svg"
   xmlns:sodipodi="http://sodipodi.sourceforge.net/DTD/sodipodi-0.dtd"
   xmlns:inkscape="http://www.inkscape.org/namespaces/inkscape"
   width="13.229166mm"
   height="18.520834mm"
   viewBox="0 0 13.229166 18.520834"
   version="1.1"
   id="svg8"
   inkscape:version="1.0.2 (e86c870879, 2021-01-15)"
   sodipodi:docname="Logo.svg">
  <defs
     id="defs2" />
  <sodipodi:namedview
     id="base"
     pagecolor="#ffffff"
     bordercolor="#666666"
     borderopacity="1.0"
     inkscape:pageopacity="0.0"
     inkscape:pageshadow="2"
     inkscape:zoom="4.0000001"
     inkscape:cx="11.517604"
     inkscape:cy="45.352034"
     inkscape:document-units="mm"
     inkscape:current-layer="layer1"
     inkscape:document-rotation="0"
     showgrid="false"
     inkscape:snap-bbox="true"
     inkscape:bbox-paths="true"
     inkscape:snap-bbox-edge-midpoints="false"
     inkscape:bbox-nodes="true"
     inkscape:window-width="1600"
     inkscape:window-height="824"
     inkscape:window-x="0"
     inkscape:window-y="0"
     inkscape:window-maximized="1"
     inkscape:pagecheckerboard="true"
     inkscape:snap-bbox-midpoints="false"
     inkscape:object-nodes="false"
     inkscape:snap-global="true"
     inkscape:snap-intersection-paths="true">
    <inkscape:grid
       type="xygrid"
       id="grid10"
       enabled="true"
       dotted="false"
       originx="-108.47918"
       originy="-33.072917" />
    <inkscape:grid
       type="axonomgrid"
       id="grid3577"
       gridanglex="45"
       gridanglez="45"
       spacingy="2"
       color="#0cfe23"
       opacity="0.1254902"
       enabled="false"
       originx="-108.47918"
       originy="-33.072917" />
  </sodipodi:namedview>
  <metadata
     id="metadata5">
    <rdf:RDF>
      <cc:Work
         rdf:about="">
        <dc:format>image/svg+xml</dc:format>
        <dc:type
           rdf:resource="http://purl.org/dc/dcmitype/StillImage" />
        <dc:title></dc:title>
      </cc:Work>
    </rdf:RDF>
  </metadata>
  <g
     inkscape:label="Capa 1"
     inkscape:groupmode="layer"
     id="layer1"
     transform="translate(-108.47917,-33.072916)">
    <path
       id="rect1734"
       style="font-variation-settings:normal;opacity:1;vector-effect:none;fill:#000000;fill-opacity:1;stroke:none;stroke-width:0.566929;stroke-linecap:butt;stroke-linejoin:miter;stroke-miterlimit:4;stroke-dasharray:none;stroke-dashoffset:0;stroke-opacity:0.565552;stop-color:#000000;stop-opacity:1"
       transform="scale(0.26458333)"
       d="m 410,125 v 5 60 5 h 50 v -5 -60 -5 z m 5,5 h 40 v 60 h -40 z m 5.00001,5 v 10 h 14.14257 a 15.000012,14.999999 0 0 0 -14.14257,-10 z m 13.22653,0 a 19.999999,19.999999 0 0 1 0.16025,0.14064 19.999999,19.999999 0 0 1 0.27742,0.25391 19.999999,19.999999 0 0 1 0.27137,0.25976 19.999999,19.999999 0 0 1 0.26759,0.26563 19.999999,19.999999 0 0 1 0.26154,0.26952 19.999999,19.999999 0 0 1 0.25776,0.27345 19.999999,19.999999 0 0 1 0.2521,0.2793 19.999999,19.999999 0 0 1 0.24605,0.2832 19.999999,19.999999 0 0 1 0.24226,0.28906 19.999999,19.999999 0 0 1 0.23433,0.29299 19.999999,19.999999 0 0 1 0.23056,0.29688 19.999999,19.999999 0 0 1 0.2245,0.30274 19.999999,19.999999 0 0 1 0.21883,0.30471 19.999999,19.999999 0 0 1 0.21279,0.31056 19.999999,19.999999 0 0 1 0.20901,0.31446 19.999999,19.999999 0 0 1 0.20107,0.31638 19.999999,19.999999 0 0 1 0.1954,0.32228 19.999999,19.999999 0 0 1 0.18747,0.32421 19.999999,19.999999 0 0 1 0.18368,0.32814 19.999999,19.999999 0 0 1 0.17764,0.33203 19.999999,19.999999 0 0 1 0.17008,0.33593 19.999999,19.999999 0 0 1 0.16403,0.33788 19.999999,19.999999 0 0 1 0.15798,0.34179 19.999999,19.999999 0 0 1 0.15232,0.34375 19.999999,19.999999 0 0 1 0.14438,0.34767 19.999999,19.999999 0 0 1 0.13871,0.34961 19.999999,19.999999 0 0 1 0.13077,0.35157 19.999999,19.999999 0 0 1 0.1251,0.35547 19.999999,19.999999 0 0 1 0.11906,0.35743 19.999999,19.999999 0 0 1 0.11149,0.35743 19.999999,19.999999 0 0 1 0.10545,0.36132 19.999999,19.999999 0 0 1 0.0975,0.36329 19.999999,19.999999 0 0 1 0.0113,0.037 h 10.6348 V 135 Z m -13.22653,20 v 10 a 4.9999994,4.9999994 0 0 1 0.18746,0.004 4.9999994,4.9999994 0 0 1 0.18746,0.01 4.9999994,4.9999994 0 0 1 0.18747,0.0178 4.9999994,4.9999994 0 0 1 0.18746,0.0253 4.9999994,4.9999994 0 0 1 0.18558,0.0314 4.9999994,4.9999994 0 0 1 0.18368,0.039 4.9999994,4.9999994 0 0 1 0.1818,0.0449 4.9999994,4.9999994 0 0 1 0.18179,0.0527 4.9999994,4.9999994 0 0 1 0.17764,0.0586 4.9999994,4.9999994 0 0 1 0.17575,0.0664 4.9999994,4.9999994 0 0 1 0.17386,0.0723 4.9999994,4.9999994 0 0 1 0.17008,0.0781 4.9999994,4.9999994 0 0 1 0.16781,0.0859 4.9999994,4.9999994 0 0 1 0.16403,0.0918 4.9999994,4.9999994 0 0 1 0.16214,0.0977 4.9999994,4.9999994 0 0 1 0.1561,0.10352 4.9999994,4.9999994 0 0 1 0.15231,0.10938 4.9999994,4.9999994 0 0 1 0.15043,0.11327 4.9999994,4.9999994 0 0 1 0.14248,0.1211 4.9999994,4.9999994 0 0 1 0.1406,0.12695 4.9999994,4.9999994 0 0 1 0.13493,0.13085 4.9999994,4.9999994 0 0 1 0.12888,0.13474 4.9999994,4.9999994 0 0 1 0.12511,0.14064 4.9999994,4.9999994 0 0 1 0.11905,0.14649 4.9999994,4.9999994 0 0 1 0.11528,0.14846 4.9999994,4.9999994 0 0 1 0.10734,0.15428 4.9999994,4.9999994 0 0 1 0.10166,0.15821 4.9999994,4.9999994 0 0 1 0.0956,0.16211 4.9999994,4.9999994 0 0 1 0.0899,0.16407 4.9999994,4.9999994 0 0 1 0.0839,0.16992 4.9999994,4.9999994 0 0 1 0.0782,0.16993 4.9999994,4.9999994 0 0 1 0.0703,0.17382 4.9999994,4.9999994 0 0 1 0.0643,0.17775 4.9999994,4.9999994 0 0 1 0.0567,0.17968 4.9999994,4.9999994 0 0 1 0.0507,0.17968 4.9999994,4.9999994 0 0 1 0.045,0.18361 4.9999994,4.9999994 0 0 1 0.0378,0.18357 4.9999994,4.9999994 0 0 1 0.0302,0.18554 4.9999994,4.9999994 0 0 1 0.0227,0.1875 4.9999994,4.9999994 0 0 1 0.0151,0.1875 4.9999994,4.9999994 0 0 1 0.0113,0.18751 4.9999994,4.9999994 0 0 1 0.002,0.14453 4.9999994,4.9999994 0 0 1 -0.004,0.1875 4.9999994,4.9999994 0 0 1 -0.0113,0.1875 4.9999994,4.9999994 0 0 1 -0.0189,0.1875 4.9999994,4.9999994 0 0 1 -0.0265,0.18751 4.9999994,4.9999994 0 0 1 -0.0302,0.18553 4.9999994,4.9999994 0 0 1 -0.0389,0.18357 4.9999994,4.9999994 0 0 1 -0.045,0.18165 4.9999994,4.9999994 0 0 1 -0.0529,0.18164 4.9999994,4.9999994 0 0 1 -0.0586,0.17775 4.9999994,4.9999994 0 0 1 -0.0665,0.17579 4.9999994,4.9999994 0 0 1 -0.0722,0.17382 4.9999994,4.9999994 0 0 1 -0.0782,0.16993 4.9999994,4.9999994 0 0 1 -0.0858,0.16796 4.9999994,4.9999994 0 0 1 -0.0918,0.16407 4.9999994,4.9999994 0 0 1 -0.0975,0.1621 4.9999994,4.9999994 0 0 1 -0.10356,0.15625 4.9999994,4.9999994 0 0 1 -0.10923,0.15235 4.9999994,4.9999994 0 0 1 -0.11339,0.15039 4.9999994,4.9999994 0 0 1 -0.12094,0.14256 4.9999994,4.9999994 0 0 1 -0.127,0.14064 4.9999994,4.9999994 0 0 1 -0.13077,0.13478 4.9999994,4.9999994 0 0 1 -0.13493,0.12892 4.9999994,4.9999994 0 0 1 -0.14059,0.12499 4.9999994,4.9999994 0 0 1 -0.14627,0.11913 4.9999994,4.9999994 0 0 1 -0.14854,0.11523 4.9999994,4.9999994 0 0 1 -0.1542,0.10742 4.9999994,4.9999994 0 0 1 -0.15836,0.10155 4.9999994,4.9999994 0 0 1 -0.16215,0.0957 4.9999994,4.9999994 0 0 1 -0.16403,0.0898 4.9999994,4.9999994 0 0 1 -0.17008,0.084 4.9999994,4.9999994 0 0 1 -0.17008,0.0781 4.9999994,4.9999994 0 0 1 -0.17385,0.0703 4.9999994,4.9999994 0 0 1 -0.17764,0.0644 4.9999994,4.9999994 0 0 1 -0.17953,0.0586 4.9999994,4.9999994 0 0 1 -0.17953,0.0488 4.9999994,4.9999994 0 0 1 -0.18368,0.0449 4.9999994,4.9999994 0 0 1 -0.18369,0.037 4.9999994,4.9999994 0 0 1 -0.18557,0.0295 4.9999994,4.9999994 0 0 1 -0.18747,0.0234 4.9999994,4.9999994 0 0 1 -0.18746,0.0155 4.9999994,4.9999994 0 0 1 -0.18746,0.01 4.9999994,4.9999994 0 0 1 -0.14438,0.002 v 10 a 15.000012,14.999999 0 0 0 0.11338,0 15.000012,14.999999 0 0 0 0.21279,-0.004 15.000012,14.999999 0 0 0 0.23433,-0.008 15.000012,14.999999 0 0 0 0.1818,-0.008 15.000012,14.999999 0 0 0 0.0227,0 15.000012,14.999999 0 0 0 0.21279,-0.0117 15.000012,14.999999 0 0 0 0.0567,-0.004 15.000012,14.999999 0 0 0 0.23244,-0.0197 15.000012,14.999999 0 0 0 0.034,-0.002 15.000012,14.999999 0 0 0 0.0189,-0.002 15.000012,14.999999 0 0 0 0.19162,-0.0178 15.000012,14.999999 0 0 0 0.22866,-0.0253 15.000012,14.999999 0 0 0 0.29103,-0.037 15.000012,14.999999 0 0 0 0.0302,-0.004 15.000012,14.999999 0 0 0 0.2109,-0.0314 15.000012,14.999999 0 0 0 0.32013,-0.0527 15.000012,14.999999 0 0 0 0.11149,-0.0197 15.000012,14.999999 0 0 0 0.0684,-0.0136 15.000012,14.999999 0 0 0 0.2521,-0.0488 15.000012,14.999999 0 0 0 0.28724,-0.0625 15.000012,14.999999 0 0 0 0.0302,-0.006 15.000012,14.999999 0 0 0 0.20711,-0.0488 15.000012,14.999999 0 0 0 0.10923,-0.0272 15.000012,14.999999 0 0 0 0.20523,-0.0528 15.000012,14.999999 0 0 0 0.0412,-0.0117 15.000012,14.999999 0 0 0 0.27326,-0.0762 15.000012,14.999999 0 0 0 0.21694,-0.0644 15.000012,14.999999 0 0 0 0.18936,-0.0606 15.000012,14.999999 0 0 0 0.0151,-0.004 15.000012,14.999999 0 0 0 0.20108,-0.0664 15.000012,14.999999 0 0 0 0.10733,-0.037 15.000012,14.999999 0 0 0 0.034,-0.0117 15.000012,14.999999 0 0 0 0.26381,-0.0938 15.000012,14.999999 0 0 0 0.0113,-0.004 15.000012,14.999999 0 0 0 0.19918,-0.0742 15.000012,14.999999 0 0 0 0.10545,-0.041 15.000012,14.999999 0 0 0 0.19729,-0.0801 15.000012,14.999999 0 0 0 0.10356,-0.043 15.000012,14.999999 0 0 0 0.0764,-0.0333 15.000012,14.999999 0 0 0 0.21467,-0.0937 15.000012,14.999999 0 0 0 0.008,-0.004 15.000012,14.999999 0 0 0 0.19351,-0.0879 15.000012,14.999999 0 0 0 0.10356,-0.0488 15.000012,14.999999 0 0 0 0.19125,-0.0918 15.000012,14.999999 0 0 0 0.004,-0.002 15.000012,14.999999 0 0 0 0.23244,-0.11716 15.000012,14.999999 0 0 0 0.0548,-0.0272 15.000012,14.999999 0 0 0 0.0994,-0.0527 15.000012,14.999999 0 0 0 0.0113,-0.006 15.000012,14.999999 0 0 0 0.27326,-0.14846 15.000012,14.999999 0 0 0 0.28309,-0.1621 15.000012,14.999999 0 0 0 0.25209,-0.14846 15.000012,14.999999 0 0 0 0.0265,-0.0174 15.000012,14.999999 0 0 0 0.18179,-0.11327 15.000012,14.999999 0 0 0 0.0956,-0.0606 15.000012,14.999999 0 0 0 0.0506,-0.0333 15.000012,14.999999 0 0 0 0.22073,-0.14649 15.000012,14.999999 0 0 0 0.26759,-0.18554 15.000012,14.999999 0 0 0 0.17197,-0.12306 15.000012,14.999999 0 0 0 0.0918,-0.0664 15.000012,14.999999 0 0 0 0.0684,-0.0527 15.000012,14.999999 0 0 0 0.19124,-0.14453 15.000012,14.999999 0 0 0 0.25588,-0.20315 15.000012,14.999999 0 0 0 0.24982,-0.20704 15.000012,14.999999 0 0 0 0.24605,-0.2129 15.000012,14.999999 0 0 0 0.23055,-0.20901 15.000012,14.999999 0 0 0 0.0113,-0.01 15.000012,14.999999 0 0 0 0.1542,-0.14453 15.000012,14.999999 0 0 0 0.082,-0.0781 15.000012,14.999999 0 0 0 0.15231,-0.14842 15.000012,14.999999 0 0 0 0.0801,-0.0801 15.000012,14.999999 0 0 0 0.14854,-0.15235 15.000012,14.999999 0 0 0 0.0782,-0.082 15.000012,14.999999 0 0 0 0.0113,-0.01 15.000012,14.999999 0 0 0 0.18935,-0.20311 15.000012,14.999999 0 0 0 0.0227,-0.0253 15.000012,14.999999 0 0 0 0.1406,-0.15821 15.000012,14.999999 0 0 0 0.0741,-0.0859 15.000012,14.999999 0 0 0 0.2109,-0.24805 15.000012,14.999999 0 0 0 0.20711,-0.25194 15.000012,14.999999 0 0 0 0.13078,-0.16604 15.000012,14.999999 0 0 0 0.0684,-0.0898 15.000012,14.999999 0 0 0 0.008,-0.01 15.000012,14.999999 0 0 0 0.18746,-0.25195 15.000012,14.999999 0 0 0 0.18557,-0.26173 15.000012,14.999999 0 0 0 0.004,-0.004 15.000012,14.999999 0 0 0 0.008,-0.01 15.000012,14.999999 0 0 0 0.17386,-0.25977 15.000012,14.999999 0 0 0 0.17764,-0.27345 15.000012,14.999999 0 0 0 0.17197,-0.27734 15.000012,14.999999 0 0 0 0.16403,-0.27931 15.000012,14.999999 0 0 0 0.16025,-0.28516 15.000012,14.999999 0 0 0 0.15232,-0.2871 15.000012,14.999999 0 0 0 0.28724,-0.58594 15.000012,14.999999 0 0 0 0.13266,-0.29688 15.000012,14.999999 0 0 0 0.36132,-0.90234 15.000012,14.999999 0 0 0 0.002,-0.004 15.000012,14.999999 0 0 0 0.0378,-0.10549 15.000012,14.999999 0 0 0 0.85938,-4.99999 15.000012,14.999999 0 0 0 -1.09572,-5.62696 15.000012,14.999999 0 0 0 -0.034,-0.0879 15.000012,14.999999 0 0 0 -0.09,-0.2129 15.000012,14.999999 0 0 0 -0.0378,-0.0859 15.000012,14.999999 0 0 0 -0.0956,-0.21093 15.000012,14.999999 0 0 0 -0.0389,-0.0859 15.000012,14.999999 0 0 0 -0.0998,-0.20897 15.000012,14.999999 0 0 0 -0.0408,-0.086 15.000012,14.999999 0 0 0 -0.10356,-0.20704 15.000012,14.999999 0 0 0 -0.0431,-0.084 15.000012,14.999999 0 0 0 -0.10734,-0.20315 15.000012,14.999999 0 0 0 -0.008,-0.0155 15.000012,14.999999 0 0 0 -0.15042,-0.26951 15.000012,14.999999 0 0 0 -0.1115,-0.19533 15.000012,14.999999 0 0 0 -0.0937,-0.15821 15.000012,14.999999 0 0 0 -0.008,-0.01 15.000012,14.999999 0 0 0 -0.12094,-0.19725 15.000012,14.999999 0 0 0 -0.0507,-0.0801 15.000012,14.999999 0 0 0 -0.1251,-0.19336 15.000012,14.999999 0 0 0 -0.1818,-0.27148 15.000012,14.999999 0 0 0 -0.18746,-0.26563 15.000012,14.999999 0 0 0 -0.0548,-0.0762 15.000012,14.999999 0 0 0 -0.034,-0.0469 15.000012,14.999999 0 0 0 -0.14249,-0.19336 15.000012,14.999999 0 0 0 -0.0151,-0.0215 15.000012,14.999999 0 0 0 -0.14248,-0.18357 15.000012,14.999999 0 0 0 -0.0586,-0.0742 15.000012,14.999999 0 0 0 -0.14664,-0.17968 15.000012,14.999999 0 0 0 -0.20901,-0.24805 15.000012,14.999999 0 0 0 -0.16403,-0.1875 15.000012,14.999999 0 0 0 -0.0507,-0.0586 15.000012,14.999999 0 0 0 -0.0624,-0.0684 15.000012,14.999999 0 0 0 -0.15836,-0.16993 15.000012,14.999999 0 0 0 -0.0646,-0.0684 15.000012,14.999999 0 0 0 -0.0302,-0.0314 15.000012,14.999999 0 0 0 -0.1954,-0.20311 15.000012,14.999999 0 0 0 -0.23244,-0.22851 15.000012,14.999999 0 0 0 -0.16781,-0.16018 15.000012,14.999999 0 0 0 -0.0151,-0.0117 15.000012,14.999999 0 0 0 -0.19729,-0.18164 15.000012,14.999999 0 0 0 -0.0302,-0.0253 15.000012,14.999999 0 0 0 -0.0703,-0.0625 15.000012,14.999999 0 0 0 -0.0412,-0.037 15.000012,14.999999 0 0 0 -0.20107,-0.17185 15.000012,14.999999 0 0 0 -0.004,-0.004 15.000012,14.999999 0 0 0 -0.17764,-0.14846 15.000012,14.999999 0 0 0 -0.17386,-0.14064 15.000012,14.999999 0 0 0 -0.0801,-0.0644 15.000012,14.999999 0 0 0 -0.0741,-0.0566 15.000012,14.999999 0 0 0 -0.18369,-0.14064 15.000012,14.999999 0 0 0 -0.0763,-0.0567 15.000012,14.999999 0 0 0 -0.18746,-0.1367 15.000012,14.999999 0 0 0 -0.0763,-0.0547 15.000012,14.999999 0 0 0 -0.18935,-0.13085 15.000012,14.999999 0 0 0 -0.24605,-0.16407 15.000012,14.999999 0 0 0 -0.0265,-0.0178 15.000012,14.999999 0 0 0 -0.0782,-0.0508 15.000012,14.999999 0 0 0 -0.19729,-0.12499 15.000012,14.999999 0 0 0 -0.0801,-0.0488 15.000012,14.999999 0 0 0 -0.19729,-0.11913 15.000012,14.999999 0 0 0 -0.082,-0.0488 15.000012,14.999999 0 0 0 -0.20107,-0.11524 15.000012,14.999999 0 0 0 -0.0801,-0.0449 15.000012,14.999999 0 0 0 -0.20523,-0.11134 15.000012,14.999999 0 0 0 -0.28914,-0.15039 15.000012,14.999999 0 0 0 -0.29102,-0.14453 15.000012,14.999999 0 0 0 -0.17764,-0.084 15.000012,14.999999 0 0 0 -0.20296,-0.0918 15.000012,14.999999 0 0 0 -0.21278,-0.0938 15.000012,14.999999 0 0 0 -0.0227,-0.01 15.000012,14.999999 0 0 0 -0.27742,-0.11524 15.000012,14.999999 0 0 0 -0.29896,-0.11524 15.000012,14.999999 0 0 0 -0.004,-0.002 15.000012,14.999999 0 0 0 -0.0881,-0.0333 15.000012,14.999999 0 0 0 -0.21884,-0.0801 15.000012,14.999999 0 0 0 -0.0264,-0.008 15.000012,14.999999 0 0 0 -0.24983,-0.084 15.000012,14.999999 0 0 0 -0.0302,-0.0117 15.000012,14.999999 0 0 0 -0.0899,-0.0295 15.000012,14.999999 0 0 0 -0.22072,-0.0703 15.000012,14.999999 0 0 0 -0.09,-0.0272 15.000012,14.999999 0 0 0 -0.22261,-0.0644 15.000012,14.999999 0 0 0 -0.0918,-0.0253 15.000012,14.999999 0 0 0 -0.22262,-0.0586 15.000012,14.999999 0 0 0 -0.0918,-0.0234 15.000012,14.999999 0 0 0 -0.2245,-0.0547 15.000012,14.999999 0 0 0 -0.0919,-0.0215 15.000012,14.999999 0 0 0 -0.0525,-0.0117 15.000012,14.999999 0 0 0 -0.2657,-0.0567 15.000012,14.999999 0 0 0 -0.22677,-0.0449 15.000012,14.999999 0 0 0 -0.0937,-0.0178 15.000012,14.999999 0 0 0 -0.0488,-0.008 15.000012,14.999999 0 0 0 -0.27137,-0.0469 15.000012,14.999999 0 0 0 -0.22866,-0.0351 15.000012,14.999999 0 0 0 -0.0937,-0.0136 15.000012,14.999999 0 0 0 -0.0605,-0.008 15.000012,14.999999 0 0 0 -0.26154,-0.0333 15.000012,14.999999 0 0 0 -0.23055,-0.0253 15.000012,14.999999 0 0 0 -0.0227,-0.002 15.000012,14.999999 0 0 0 -0.28724,-0.0253 15.000012,14.999999 0 0 0 -0.0151,-0.002 15.000012,14.999999 0 0 0 -0.008,0 15.000012,14.999999 0 0 0 -0.32013,-0.0215 15.000012,14.999999 0 0 0 -0.31634,-0.0155 15.000012,14.999999 0 0 0 -0.008,0 15.000012,14.999999 0 0 0 -0.002,0 15.000012,14.999999 0 0 0 -0.32428,-0.008 15.000012,14.999999 0 0 0 -0.20712,-0.002 z m 13.22653,0 a 19.999999,19.999999 0 0 1 0.16025,0.14064 19.999999,19.999999 0 0 1 0.27742,0.25391 19.999999,19.999999 0 0 1 0.27137,0.25977 19.999999,19.999999 0 0 1 0.26759,0.26562 19.999999,19.999999 0 0 1 0.26154,0.26952 19.999999,19.999999 0 0 1 0.25776,0.27345 19.999999,19.999999 0 0 1 0.2521,0.2793 19.999999,19.999999 0 0 1 0.24605,0.2832 19.999999,19.999999 0 0 1 0.24226,0.28906 19.999999,19.999999 0 0 1 0.23433,0.29295 19.999999,19.999999 0 0 1 0.23056,0.29689 19.999999,19.999999 0 0 1 0.2245,0.30274 19.999999,19.999999 0 0 1 0.21883,0.3047 19.999999,19.999999 0 0 1 0.21279,0.31057 19.999999,19.999999 0 0 1 0.20901,0.31445 19.999999,19.999999 0 0 1 0.20107,0.31639 19.999999,19.999999 0 0 1 0.1954,0.32228 19.999999,19.999999 0 0 1 0.13077,0.22461 19.999999,19.999999 0 0 1 0.0567,0.0996 19.999999,19.999999 0 0 1 0.18368,0.32814 19.999999,19.999999 0 0 1 0.17764,0.33203 19.999999,19.999999 0 0 1 0.17008,0.33593 19.999999,19.999999 0 0 1 0.16403,0.33789 19.999999,19.999999 0 0 1 0.15798,0.34178 19.999999,19.999999 0 0 1 0.15232,0.34375 19.999999,19.999999 0 0 1 0.14438,0.34768 19.999999,19.999999 0 0 1 0.13871,0.3496 19.999999,19.999999 0 0 1 0.13077,0.35158 19.999999,19.999999 0 0 1 0.1251,0.35546 19.999999,19.999999 0 0 1 0.11906,0.35743 19.999999,19.999999 0 0 1 0.11149,0.35743 19.999999,19.999999 0 0 1 0.10545,0.36132 19.999999,19.999999 0 0 1 0.0975,0.36329 19.999999,19.999999 0 0 1 0.0113,0.037 h 10.6348 v -10 h -10.6348 z m 6.13867,20 a 19.999999,19.999999 0 0 1 -0.0548,0.20508 19.999999,19.999999 0 0 1 -0.10167,0.36132 19.999999,19.999999 0 0 1 -0.10734,0.35936 19.999999,19.999999 0 0 1 -0.11528,0.35939 19.999999,19.999999 0 0 1 -0.12094,0.35547 19.999999,19.999999 0 0 1 -0.12888,0.3535 19.999999,19.999999 0 0 1 -0.13493,0.35157 19.999999,19.999999 0 0 1 -0.1406,0.34768 19.999999,19.999999 0 0 1 -0.14854,0.34571 19.999999,19.999999 0 0 1 -0.1542,0.34375 19.999999,19.999999 0 0 1 -0.16025,0.33985 19.999999,19.999999 0 0 1 -0.16782,0.33593 19.999999,19.999999 0 0 1 -0.17385,0.334 19.999999,19.999999 0 0 1 -0.17991,0.33006 19.999999,19.999999 0 0 1 -0.18557,0.32814 19.999999,19.999999 0 0 1 -0.19125,0.32228 19.999999,19.999999 0 0 1 -0.19729,0.32032 19.999999,19.999999 0 0 1 -0.20485,0.31642 19.999999,19.999999 0 0 1 -0.20901,0.31052 19.999999,19.999999 0 0 1 -0.21694,0.3086 19.999999,19.999999 0 0 1 -0.22073,0.30467 19.999999,19.999999 0 0 1 -0.22866,0.29881 19.999999,19.999999 0 0 1 -0.23244,0.29492 19.999999,19.999999 0 0 1 -0.23811,0.29102 19.999999,19.999999 0 0 1 -0.24416,0.28709 19.999999,19.999999 0 0 1 -0.24793,0.28127 19.999999,19.999999 0 0 1 -0.25399,0.27735 19.999999,19.999999 0 0 1 -0.25965,0.27148 19.999999,19.999999 0 0 1 -0.2657,0.26755 19.999999,19.999999 0 0 1 -0.26948,0.26174 19.999999,19.999999 0 0 1 -0.27364,0.2578 19.999999,19.999999 0 0 1 -0.27931,0.25194 19.999999,19.999999 0 0 1 -0.0302,0.0253 h 16.7715 v -10 z" />
  </g>
</svg>
